<mxfile host="app.diagrams.net" modified="2022-06-15T19:11:06.398Z" agent="5.0 (Windows)" etag="Z_AbkfhMoaoTiqfiritk" version="20.0.1" type="github">
  <diagram id="gvSKkbfNwhEAVcsit9nm" name="Page-1">
    <mxGraphModel dx="1422" dy="820" grid="1" gridSize="10" guides="1" tooltips="1" connect="1" arrows="1" fold="1" page="1" pageScale="1" pageWidth="850" pageHeight="1100" math="0" shadow="0">
      <root>
        <mxCell id="0" />
        <mxCell id="1" parent="0" />
        <mxCell id="Lgj8eQEdXFoymzmHhg29-1" value="Home Page" style="rounded=0;whiteSpace=wrap;html=1;fillColor=#fff2cc;strokeColor=#d6b656;" parent="1" vertex="1">
          <mxGeometry x="100" y="40" width="100" height="40" as="geometry" />
        </mxCell>
        <mxCell id="Lgj8eQEdXFoymzmHhg29-2" value="Login" style="rounded=0;whiteSpace=wrap;html=1;fillColor=#fff2cc;strokeColor=#d6b656;" parent="1" vertex="1">
          <mxGeometry x="210" y="40" width="100" height="40" as="geometry" />
        </mxCell>
        <mxCell id="Lgj8eQEdXFoymzmHhg29-3" value="Join Us" style="rounded=0;whiteSpace=wrap;html=1;fillColor=#fff2cc;strokeColor=#d6b656;" parent="1" vertex="1">
          <mxGeometry x="330" y="40" width="100" height="40" as="geometry" />
        </mxCell>
        <mxCell id="Lgj8eQEdXFoymzmHhg29-4" value="TheZone" style="rounded=0;whiteSpace=wrap;html=1;fillColor=#fff2cc;strokeColor=#d6b656;" parent="1" vertex="1">
          <mxGeometry x="450" y="40" width="100" height="40" as="geometry" />
        </mxCell>
        <mxCell id="Lgj8eQEdXFoymzmHhg29-5" value="Content" style="rounded=0;whiteSpace=wrap;html=1;" parent="1" vertex="1">
          <mxGeometry x="100" y="170" width="100" height="40" as="geometry" />
        </mxCell>
        <mxCell id="Lgj8eQEdXFoymzmHhg29-9" value="" style="shape=flexArrow;endArrow=classic;html=1;rounded=0;" parent="1" edge="1">
          <mxGeometry width="50" height="50" relative="1" as="geometry">
            <mxPoint x="149.5" y="90" as="sourcePoint" />
            <mxPoint x="149.5" y="150" as="targetPoint" />
          </mxGeometry>
        </mxCell>
        <mxCell id="Lgj8eQEdXFoymzmHhg29-10" value="" style="shape=flexArrow;endArrow=classic;html=1;rounded=0;" parent="1" edge="1">
          <mxGeometry width="50" height="50" relative="1" as="geometry">
            <mxPoint x="500" y="90" as="sourcePoint" />
            <mxPoint x="500" y="150" as="targetPoint" />
          </mxGeometry>
        </mxCell>
        <mxCell id="Lgj8eQEdXFoymzmHhg29-11" value="" style="shape=flexArrow;endArrow=classic;html=1;rounded=0;" parent="1" edge="1">
          <mxGeometry width="50" height="50" relative="1" as="geometry">
            <mxPoint x="379.5" y="90" as="sourcePoint" />
            <mxPoint x="379.5" y="150" as="targetPoint" />
          </mxGeometry>
        </mxCell>
        <mxCell id="Lgj8eQEdXFoymzmHhg29-12" value="" style="shape=flexArrow;endArrow=classic;html=1;rounded=0;" parent="1" edge="1">
          <mxGeometry width="50" height="50" relative="1" as="geometry">
            <mxPoint x="260" y="90" as="sourcePoint" />
            <mxPoint x="260" y="150" as="targetPoint" />
          </mxGeometry>
        </mxCell>
        <mxCell id="XuaBeWZKzAXTyO8e4Qta-1" value="Successful Login" style="rounded=0;whiteSpace=wrap;html=1;" parent="1" vertex="1">
          <mxGeometry x="210" y="170" width="100" height="40" as="geometry" />
        </mxCell>
        <mxCell id="XuaBeWZKzAXTyO8e4Qta-2" value="After Registration" style="rounded=0;whiteSpace=wrap;html=1;" parent="1" vertex="1">
          <mxGeometry x="330" y="170" width="100" height="40" as="geometry" />
        </mxCell>
        <mxCell id="XuaBeWZKzAXTyO8e4Qta-4" value="" style="shape=flexArrow;endArrow=classic;html=1;rounded=0;" parent="1" edge="1">
          <mxGeometry width="50" height="50" relative="1" as="geometry">
            <mxPoint x="259.5" y="220" as="sourcePoint" />
            <mxPoint x="259.5" y="280" as="targetPoint" />
          </mxGeometry>
        </mxCell>
        <mxCell id="XuaBeWZKzAXTyO8e4Qta-5" value="" style="shape=flexArrow;endArrow=classic;html=1;rounded=0;" parent="1" edge="1">
          <mxGeometry width="50" height="50" relative="1" as="geometry">
            <mxPoint x="370" y="220" as="sourcePoint" />
            <mxPoint x="370" y="280" as="targetPoint" />
          </mxGeometry>
        </mxCell>
        <mxCell id="XuaBeWZKzAXTyO8e4Qta-6" value="User Account/Dashboard" style="rounded=0;whiteSpace=wrap;html=1;" parent="1" vertex="1">
          <mxGeometry x="220" y="290" width="180" height="60" as="geometry" />
        </mxCell>
        <mxCell id="hYDIc72p4CeGcWEvr4Sk-1" value="Update Account" style="rounded=0;whiteSpace=wrap;html=1;" parent="1" vertex="1">
          <mxGeometry x="90" y="410" width="110" height="30" as="geometry" />
        </mxCell>
        <mxCell id="hYDIc72p4CeGcWEvr4Sk-2" value="Delete Account" style="rounded=0;whiteSpace=wrap;html=1;" parent="1" vertex="1">
          <mxGeometry x="210" y="410" width="110" height="30" as="geometry" />
        </mxCell>
        <mxCell id="hYDIc72p4CeGcWEvr4Sk-3" value="" style="shape=flexArrow;endArrow=classic;html=1;rounded=0;" parent="1" edge="1">
          <mxGeometry width="50" height="50" relative="1" as="geometry">
            <mxPoint x="300" y="360" as="sourcePoint" />
            <mxPoint x="300" y="400" as="targetPoint" />
          </mxGeometry>
        </mxCell>
        <mxCell id="hYDIc72p4CeGcWEvr4Sk-4" value="Logout" style="rounded=0;whiteSpace=wrap;html=1;" parent="1" vertex="1">
          <mxGeometry x="330" y="410" width="110" height="30" as="geometry" />
        </mxCell>
        <mxCell id="hYDIc72p4CeGcWEvr4Sk-5" value="Find Content by Category" style="rounded=0;whiteSpace=wrap;html=1;" parent="1" vertex="1">
          <mxGeometry x="460" y="170" width="100" height="40" as="geometry" />
        </mxCell>
        <mxCell id="hYDIc72p4CeGcWEvr4Sk-6" value="Subscribe to Admin" style="rounded=0;whiteSpace=wrap;html=1;" parent="1" vertex="1">
          <mxGeometry x="450" y="410" width="110" height="30" as="geometry" />
        </mxCell>
      </root>
    </mxGraphModel>
  </diagram>
</mxfile>
